<svg xmlns="http://www.w3.org/2000/svg" enable-background="new 0 0 65 65" viewBox="0 0 65 65" id="prestashop"><circle cx="32.5" cy="32.5" r="26.2" fill="#fff" stroke="#000" stroke-linecap="round" stroke-linejoin="round" stroke-miterlimit="10" stroke-width="2"></circle>
<path fill="#000" d="M21.4,52.6C21.4,52.6,21.4,52.6,21.4,52.6L21.4,52.6C21.4,52.6,21.4,52.6,21.4,52.6"></path>
<path fill="#000" d="M42.3,52.6L42.3,52.6C42.3,52.6,42.3,52.6,42.3,52.6C42.3,52.6,42.3,52.6,42.3,52.6"></path>
<path fill="#000" d="M39.1,47.9c-0.1-0.1-0.2-0.2-0.2-0.3C38.9,47.7,39,47.8,39.1,47.9"></path>
<path fill="#000" d="M39.7,48.5C39.7,48.5,39.7,48.5,39.7,48.5C39.7,48.5,39.7,48.5,39.7,48.5s-0.3-0.2-0.6-0.6
		C39.4,48.3,39.7,48.5,39.7,48.5"></path>
		<path fill="#fff" d="M48.4,32.9C48.4,32.9,48.4,32.9,48.4,32.9C48.4,32.9,48.4,32.9,48.4,32.9"></path>
		<path fill="#000" d="M48.4,32.9C48.4,32.9,48.4,32.9,48.4,32.9C48.4,32.9,48.4,32.9,48.4,32.9"></path>
		<path fill="#fff" d="M47.4,31.4c-0.2,0-0.4,0.3-0.4,0.7c0,0.4,0.2,0.7,0.4,0.7s0.4-0.3,0.4-0.7C47.8,31.6,47.6,31.4,47.4,31.4"></path>
		<path fill="#000" stroke="#000" stroke-linecap="round" stroke-linejoin="round" stroke-miterlimit="10" stroke-width="2" d="M40.7,46.2c-0.4-0.2-0.8-0.3-1.2-0.5c-0.5-0.2-0.9-0.3-1.4-0.5c-0.6-0.2-1.2-0.3-1.8-0.5
			c-0.8-0.2-1.6-0.3-2.5-0.4c0.5,1.5,1,2.9,1.5,4.4c0,0.3,0,0.6,0,0.8c-1.1-0.2-2.3-0.3-3.5-0.3c-1.2,0-2.4,0.1-3.5,0.3
			c0-0.3,0-0.6,0-0.8c0.6-1.5,1.1-2.9,1.5-4.4c-0.8,0.1-1.7,0.2-2.5,0.4c-0.6,0.1-1.2,0.3-1.8,0.5c-0.5,0.1-0.9,0.3-1.4,0.5
			c-0.4,0.2-0.8,0.3-1.2,0.5c-2.9,1.3-5.5,3.2-7.6,5.6c1.2,1,2.5,1.9,3.8,2.7c0.3,0.2,0.6,0.3,0.9,0.5c0.3,0.2,0.6,0.3,1,0.5
			c0.1-0.8,0.3-2,0.3-3c0,0,10.4,0,10.5,0l0,0l10.4,0c0,0,0.1,0.1,0.2,0.1c0,1,0.1,2,0.3,2.9c0.3-0.2,0.6-0.3,1-0.5
			c0.3-0.2,0.6-0.3,0.9-0.5c1.4-0.8,2.6-1.7,3.8-2.7C46.2,49.3,43.6,47.5,40.7,46.2z"></path>
			<path fill="#fff" d="M32.5,50.7c-9.4,0-17.1-7.7-17.1-17.1s7.7-17.1,17.1-17.1s17.1,7.7,17.1,17.1S41.9,50.7,32.5,50.7z">
			</path>
			<path fill="#000" d="M32.5,17.4c8.9,0,16.1,7.2,16.1,16.1c0,8.9-7.2,16.1-16.1,16.1c-8.9,0-16.1-7.2-16.1-16.1
			C16.4,24.7,23.6,17.4,32.5,17.4 M32.5,15.4c-10,0-18.1,8.1-18.1,18.1c0,10,8.1,18.1,18.1,18.1c10,0,18.1-8.1,18.1-18.1
			C50.6,23.6,42.5,15.4,32.5,15.4L32.5,15.4z"></path>
			<path fill="#fff" d="M33.1,30.8c-0.5,0-0.9,0.4-0.9,0.9s0.4,0.9,0.9,0.9s0.9-0.4,0.9-0.9S33.6,30.8,33.1,30.8"></path>
			<path fill="#000" d="M40.3,28.8C40.3,28.8,40.3,28.8,40.3,28.8C40.3,28.8,40.3,28.8,40.3,28.8"></path>
			<path fill="#000" d="M35.5,32.9C35.5,32.9,35.5,32.9,35.5,32.9c0-0.1,0-0.2,0-0.3c0,0,0,0,0,0c0-0.1,0-0.2,0-0.2c0,0,0,0,0,0
			c0-0.1,0-0.2-0.1-0.2c0,0,0,0,0,0c0-0.1-0.1-0.1-0.1-0.2c0,0,0,0,0,0c0-0.1-0.1-0.1-0.1-0.2c-0.1-0.2-0.3-0.4-0.4-0.5l0,0l-1.6-5
			l-1.6,5l0,0l0,0l-6.9,1.7h0l6.8,1.7c0.2,0.2,0.3,0.3,0.6,0.4c0,0,0,0,0,0c0.1,0,0.1,0.1,0.2,0.1c0,0,0,0,0,0
			c0.1,0,0.1,0.1,0.2,0.1c0,0,0,0,0,0c0.1,0,0.1,0,0.2,0c0,0,0,0,0,0c0.1,0,0.1,0,0.2,0c0,0,0,0,0.1,0c0.1,0,0.2,0,0.2,0
			c0.3,0,0.6-0.1,0.9-0.2c0.1-0.1,0.3-0.1,0.4-0.2c0.3-0.2,0.5-0.4,0.6-0.6c0.1-0.1,0.2-0.3,0.2-0.4C35.4,33.5,35.5,33.2,35.5,32.9
			C35.5,32.9,35.5,32.9,35.5,32.9z M33.1,32.6c-0.5,0-0.9-0.4-0.9-0.9c0-0.5,0.4-0.9,0.9-0.9c0.5,0,0.9,0.4,0.9,0.9
			C34,32.2,33.6,32.6,33.1,32.6z"></path>
			<path fill="#000" d="M40.3,28.8C40.3,28.8,40.3,28.8,40.3,28.8C40.3,28.8,40.3,28.8,40.3,28.8C40.3,28.8,40.4,28.8,40.3,28.8
		C40.4,28.8,40.4,28.8,40.3,28.8"></path>
		<path fill="#000" d="M15.2,34.3c-0.1-0.5-0.1-1.1-0.1-1.6c0-9.2,7.5-16.7,16.7-16.7c5.9,0,11.2,3,14.2,7.8
			c-0.3-0.1-0.7-0.1-1-0.1c-1.2,0-2.4,0.6-3.4,1.6c-0.6,0.5-1.1,1.2-1.6,2c-0.5-0.4-1-0.8-1.6-1.1c-0.3-0.4-0.7-0.6-1.6-0.9
			c-0.3-0.1-0.5-0.2-0.8-0.4c-0.3-0.1-0.6-0.2-1-0.4c-0.8-0.3-1.6-0.5-1.8-0.5c-1-0.2-2-0.3-3-0.3c-0.3,0-0.7,0-1,0l-0.1,0
			c-1.8,0.1-3.5,0.6-5.1,1.3c-1.4,0.6-2.6,1.4-3.8,2.4c-0.3,0.3-0.6,0.5-0.9,0.8l-0.2,0.2c-0.3,0.3-0.5,0.6-0.8,0.8l-0.2,0.2
			c-0.2,0.3-0.5,0.6-0.7,0.9c0,0-0.1,0.1-0.1,0.1c-0.2,0.3-0.4,0.6-0.6,0.9l-0.1,0.2c-0.2,0.3-0.3,0.5-0.5,0.8l-0.1,0.2l-0.1,0.3
			c-0.2,0.3-0.3,0.6-0.4,0.9L15.4,34C15.3,34.1,15.3,34.2,15.2,34.3z"></path>
			<path fill="#000" d="M31.9,17c4.8,0,9.3,2.2,12.2,5.8c-1.1,0.2-2.2,0.8-3.2,1.8c-0.4,0.4-0.7,0.8-1.1,1.3
			c-0.2-0.2-0.4-0.3-0.6-0.4c-0.5-0.5-1.2-0.8-1.9-1.1c-0.3-0.1-0.5-0.2-0.8-0.3c-1.2-0.5-2.7-0.9-3-0.9c0,0,0,0-0.1,0
			c-1.1-0.2-2.2-0.3-3.2-0.3c-0.3,0-0.7,0-1.1,0l-0.1,0c-1.9,0.1-3.7,0.6-5.5,1.4c-1.4,0.7-2.8,1.5-4,2.6c0,0,0,0,0,0
			c-0.3,0.2-0.6,0.5-0.9,0.8l0,0l-0.1,0.1c-0.3,0.3-0.6,0.6-0.8,0.9l-0.1,0.2l0,0c-0.3,0.3-0.5,0.7-0.8,1l-0.1,0.1
			c-0.1,0.1-0.2,0.3-0.3,0.4C17.5,22.7,24,17,31.9,17 M31.9,15c-9.8,0-17.7,7.9-17.7,17.7c0,1.9,0.3,3.8,0.9,5.5c0,0,0,0,0,0
			c0.1-0.5,0.2-1,0.4-1.6c0.1-0.4,0.3-0.8,0.4-1.2c0,0,0,0,0,0c0.1-0.3,0.3-0.7,0.4-1c0-0.1,0.1-0.2,0.1-0.3
			c0.1-0.3,0.3-0.5,0.4-0.8c0.1-0.1,0.1-0.2,0.2-0.3c0-0.1,0.1-0.1,0.1-0.2c0.1-0.3,0.3-0.5,0.4-0.8c0-0.1,0.1-0.1,0.1-0.2
			c0.2-0.3,0.4-0.6,0.6-0.9c0,0,0-0.1,0.1-0.1c0.2-0.3,0.5-0.6,0.7-0.9c0.1-0.1,0.1-0.1,0.2-0.2c0.2-0.3,0.5-0.5,0.7-0.8
			C19.9,29.1,20,29,20,29c0.3-0.3,0.5-0.5,0.8-0.8c0,0,0,0,0,0c1.1-0.9,2.3-1.7,3.6-2.3c1.5-0.7,3.1-1.1,4.8-1.2c0,0,0.1,0,0.1,0
			c0.3,0,0.6,0,1,0c1,0,1.9,0.1,2.8,0.3h0c0.6,0.2,1.8,0.5,2.6,0.8c0.3,0.1,0.5,0.2,0.8,0.4c0.6,0.2,1.1,0.4,1.2,0.6
			c-0.1-0.1-0.5-0.3-1.1-0.5c0.1,0,0.1,0.1,0.2,0.1c0,0,0,0,0.1,0c0,0,0,0,0,0c0,0,0.1,0,0.1,0.1c0,0,0,0,0,0c0,0,0.1,0.1,0.2,0.1
			c0,0,0,0,0,0c0.2,0.1,0.5,0.3,0.6,0.3c0,0,0,0,0,0c0,0,0,0,0,0c0,0,0,0,0,0c0,0,0,0,0,0c0.6,0.4,1.3,0.8,1.8,1.3
			c0.2,0.2,0.4,0.3,0.6,0.5c0.1,0.1,0.1,0.1,0.2,0.2c0,0,0,0,0,0c0,0,0,0,0,0c0,0,0-0.1,0.1-0.1l0,0c0.5-1,1.1-2,1.9-2.7
			c0.7-0.7,1.7-1.3,2.7-1.3c0.8,0,1.6,0.3,2.3,0.9c0,0,0,0,0,0c0.1,0.1,0.1,0.1,0.2,0.2c0,0,0.1,0.1,0.1,0.1
			c0.1,0.1,0.2,0.2,0.3,0.3c0,0,0,0,0,0c0,0,0,0,0,0c0,0,0,0,0,0l0,0l0,0l0,0c0,0,0,0,0,0c0,0,0,0,0,0c0.2,0.2,0.4,0.5,0.6,0.8l0,0
			c0,0,0,0,0,0c0,0,0,0.1,0,0.1v0l0-0.1C46.3,20,39.7,15,31.9,15L31.9,15z M34.8,25.4c0.1,0.2,1,0.5,1.7,0.7c0,0-0.1,0-0.1,0
			C35.8,25.9,34.9,25.6,34.8,25.4L34.8,25.4z"></path>
			<path fill="#000" d="M40,47.5c-0.1-0.1-0.1-0.1-0.2-0.2c-0.1-0.1-0.1-0.1-0.2-0.2c-0.1-0.1-0.1-0.1-0.2-0.2l-0.1-0.2
			c-0.1-0.2-0.2-0.3-0.3-0.5c-0.1-0.2-0.2-0.4-0.2-0.6c0-0.1-0.1-0.3-0.1-0.5c0-0.2-0.1-0.5,0-0.7c0-0.1,0-0.3,0-0.4
			c0-0.1,0.1-0.3,0.1-0.5c0.1-0.5,0.4-1,0.7-1.6l0.4-0.6c1.7-2.8,2.9-5.3,2.4-9c0,0,0-0.1,0-0.1c0.1,0.1,0.5,0.5,0.5,0.5
			c0.2,0.3,0.5,0.5,0.7,0.8l0.1,0.1c0.4,0.4,0.7,0.9,1.1,1.3c0.4,0.4,0.7,0.9,1.1,1.3c0.4,0.5,0.7,0.9,1,1.3c0,0,0.8,1,1.1,1.5
			c0.9,1.2,1.6,2.1,2,2.8c-1.1,1-3.7,3.3-6.6,4.7l-0.3,0.2c-0.4,0.2-0.7,0.3-1.1,0.5C41.2,47.2,40.6,47.4,40,47.5z M37.4,36.5
			c0.3-0.7,0.6-1.5,0.8-2.3l0.2-1.1c0.1-0.8,0.2-1.5,0.3-2.3c0-0.3,0-0.5,0-0.7c0-0.3,0-0.5,0-0.8c0-0.1,0-0.3,0-0.4
			c0,0,0.1,0.1,0.1,0.1c0.2,0.2,0.4,0.3,0.5,0.5c0,0,0.2,0.2,0.2,0.2c0.1,0.1,0.1,0.1,0.2,0.1c0.1,0.1,0.2,0.2,0.3,0.3
			c0.3,0.3,0.6,0.5,0.9,0.8c-0.2,0-0.3,0.1-0.5,0.3c-0.1,0.2-0.3,0.4-0.3,0.6c0,0-0.1,0.3-0.1,0.3C39.6,33.6,38.8,34.9,37.4,36.5z"></path>
			<path fill="#000" d="M43.4 34.9c.2.2.3.4.5.6 0 0 0 0 0 0 .3.4.7.9 1 1.3l.1.1c.3.4.6.8 1 1.3l.1.1c.3.4.7.9 1 1.3.6.8 1.1 1.5 1.5 2-1.3 1.1-3.4 2.8-5.7 3.9l-.2.1c-.1 0-.1.1-.2.1-.3.1-.6.3-1 .4-.4.1-.7.2-1.1.3 0 0-.1-.1-.1-.2 0 0-.1-.1-.1-.1-.1-.1-.2-.3-.2-.4-.1-.2-.1-.3-.2-.5 0-.1-.1-.2-.1-.3 0-.2 0-.4 0-.6 0-.1 0-.2 0-.3 0-.1 0-.2.1-.4.1-.4.3-.8.6-1.3l.4-.6C42.1 39.5 43.2 37.4 43.4 34.9M37.8 26.8c0 .5.1 1.1.1 1.6 0 .1 0 .1 0 .2 0 .2 0 .4 0 .6 0 .3 0 .5 0 .8 0 .2 0 .4 0 .6 0 0 0 0 0 .1-.1.7-.2 1.5-.3 2.2L37.2 34c-.5 2-1.5 3.8-2.3 5.6-.2.5-.4 1-.6 1.5 0 0 0 .1-.1.1.3-.3.5-.5.7-.7.2-.2.4-.4.6-.5.5-.4.9-.9 1.3-1.3.2-.3.5-.5.7-.7 1.7-1.8 2.9-3.5 3.6-5.7 0-.1 0-.1.1-.2 0 0 0 0 0 0 0-.1 0-.2.1-.3 0 0 0 0 0-.1 0 .2.1.4.1.6.4 3.3-.6 5.5-2.3 8.4-.1.2-.2.4-.4.6-.4.6-.6 1.3-.8 1.8 0 .2-.1.4-.1.6 0 .2 0 .4-.1.6 0 .3 0 .6.1.9 0 .2.1.4.1.6.1.3.2.5.3.8.1.2.2.4.4.6 0 .1.1.1.1.2.1.1.1.2.2.3.1.1.2.2.2.3.3.4.6.6.6.6s0 0 0 0c0 0 0 0 0 0 0 0 .1 0 .1 0 .8-.1 1.6-.3 2.4-.6.4-.1.8-.3 1.2-.5.1-.1.2-.1.4-.2 4.1-2 7.5-5.4 7.5-5.4s-1-1.5-2.5-3.5c-.3-.5-.7-.9-1-1.4 0 0-.1-.1-.1-.1-.3-.4-.7-.8-1-1.3 0 0 0 0-.1-.1-.3-.4-.7-.9-1.1-1.3 0 0 0 0 0 0-.4-.4-.7-.9-1.1-1.3 0 0 0-.1-.1-.1-.2-.3-.5-.5-.7-.8-.1-.1-.2-.2-.2-.3-.2-.2-.4-.4-.6-.6-.2-.2-.3-.3-.5-.5-.1-.2-.3-.3-.4-.5-.3-.3-.7-.6-1-.9-.1-.1-.3-.3-.5-.4 0 0 0 0 0 0 0 0 0 0 0 0 0 0 0 0 0 0 0 0 0 0 0 0 0 0 0 0 0 0-.1-.1-.1-.1-.2-.2-.2-.2-.4-.3-.6-.5C39 27.7 38.4 27.2 37.8 26.8L37.8 26.8zM49 32.9l-.7-.7c0 0 0 0 0 0 0 0 0-.1 0-.1 0 0 0 0 0 0L47.4 28l-.9 4.1h0c0 0 0 0 0 0 0 .1 0 .2-.1.3 0 0 0 .1 0 .1 0 .1 0 .2 0 .3 0 0 0 0 0 0h0c0 1 .5 1.7 1 1.7.1 0 .2 0 .3-.1 0 0 0 0 0 0 0 0 .1 0 .1-.1 0 0 0 0 .1-.1 0 0 .1-.1.1-.1 0 0 .1-.1.1-.1 0 0 0-.1 0-.1 0-.1.1-.1.1-.2 0 0 0 0 0-.1 0-.1.1-.2.1-.3 0 0 0 0 0 0v0l0 0c0 0 0 0 0 0v0L49 32.9zM47.4 32.7c-.2 0-.4-.3-.4-.7 0-.4.2-.7.4-.7s.4.3.4.7C47.8 32.4 47.6 32.7 47.4 32.7zM48.4 32.9C48.4 32.9 48.4 32.9 48.4 32.9 48.4 32.9 48.4 32.9 48.4 32.9 48.4 32.9 48.4 32.9 48.4 32.9 48.4 32.9 48.4 32.9 48.4 32.9 48.4 32.9 48.4 32.9 48.4 32.9 48.4 32.9 48.4 32.9 48.4 32.9zM48.4 32.5C48.4 32.5 48.4 32.5 48.4 32.5L48.4 32.5C48.4 32.5 48.4 32.5 48.4 32.5 48.4 32.5 48.4 32.5 48.4 32.5zM48.4 33.3L48.4 33.3C48.4 33.3 48.4 33.3 48.4 33.3 48.4 33.3 48.4 33.3 48.4 33.3 48.4 33.3 48.4 33.3 48.4 33.3z">
			</path>
			<path fill="#000" stroke="#808080" stroke-linecap="round" stroke-linejoin="round" stroke-miterlimit="10" stroke-width="2" d="M39.7,48.4c0,0-0.3-0.2-0.6-0.6c-0.1-0.1-0.2-0.2-0.2-0.3c-0.1-0.1-0.1-0.2-0.2-0.3c0-0.1-0.1-0.1-0.1-0.2
		c-0.1-0.2-0.2-0.4-0.3-0.7c-0.1-0.3-0.1-0.5-0.2-0.7C38,45.6,38,45.4,38,45.2c0-0.3-0.1-0.6-0.1-0.9c0-0.2,0-0.4,0.1-0.6
		c0-0.2,0.1-0.4,0.1-0.6c0.1-0.6,0.4-1.2,0.8-1.8c0,0,0.1-0.2,0.1-0.2c0.1-0.2,0.2-0.2,0.3-0.4c1.7-2.9,2.6-5,2.2-8.3
		c0-0.2-0.1-0.8-0.2-1c0,0.2-0.1,0.7-0.1,0.7c0,0.1-0.1,0.2-0.1,0.2c-0.7,2.2-1.9,3.8-3.6,5.6c-0.2,0.2-0.5,0.5-0.7,0.7
		c-0.4,0.4-0.8,0.9-1.3,1.3c-0.2,0.2-0.4,0.4-0.6,0.5c-0.2,0.2-0.4,0.5-0.6,0.8c-0.2,0.4-0.3,0.9-0.5,1.5c-0.1,0-0.1,0-0.2-0.1
		c-3.2-1.3-5.4-2.9-5.4-2.9s1.7,2.2,4.5,4.2c0.3,0.2,0.5,0.4,0.8,0.5c-0.1,1.8,0.7,3.6,4.3,4.1c0.6,0.1,1.2,0.1,1.9,0
		C39.7,48.5,39.7,48.5,39.7,48.4C39.7,48.5,39.7,48.5,39.7,48.4"></path></svg>